PathFileType	4	(X/Y/Z)	C:/Users/opensim2020/Desktop/walking_exp_matlab/subject06_walking13_straight_02.trc	
DataRate	CameraRate	NumFrames	NumMarkers	Units	OrigDataRate	OrigDataStartFrame	OrigNumFrames	
100.00	100.00	4	50	mm	100.00	1537	199	
Frame#	Time	LFHD			RFHD			LBHD			RBHD			C7			T10			CLAV			STRN			RBAK			LSHO			LUPA			LELB			LFRM			LWRA			LWRB			LFIN			RSHO			RUPA			RELB			RFRM			RWRA			RWRB			RFIN			LASI			RASI			LPSI			RPSI			LTHI			LKNE			LTIB			LANK			LHEE			LTOE			RTHI			RKNE			RTIB			RANK			RHEE			RTOE			*39			*40			*41			*42			*43			*44			*45			*46			*47			*48			*49			
		X1	Y1	Z1	X2	Y2	Z2	X3	Y3	Z3	X4	Y4	Z4	X5	Y5	Z5	X6	Y6	Z6	X7	Y7	Z7	X8	Y8	Z8	X9	Y9	Z9	X10	Y10	Z10	X11	Y11	Z11	X12	Y12	Z12	X13	Y13	Z13	X14	Y14	Z14	X15	Y15	Z15	X16	Y16	Z16	X17	Y17	Z17	X18	Y18	Z18	X19	Y19	Z19	X20	Y20	Z20	X21	Y21	Z21	X22	Y22	Z22	X23	Y23	Z23	X24	Y24	Z24	X25	Y25	Z25	X26	Y26	Z26	X27	Y27	Z27	X28	Y28	Z28	X29	Y29	Z29	X30	Y30	Z30	X31	Y31	Z31	X32	Y32	Z32	X33	Y33	Z33	X34	Y34	Z34	X35	Y35	Z35	X36	Y36	Z36	X37	Y37	Z37	X38	Y38	Z38	X39	Y39	Z39	X40	Y40	Z40	X41	Y41	Z41	X42	Y42	Z42	X43	Y43	Z43	X44	Y44	Z44	X45	Y45	Z45	X46	Y46	Z46	X47	Y47	Z47	X48	Y48	Z48	X49	Y49	Z49	X50	Y50	Z50	

1	0.000	1490.32397	1006.88025	1671.02039	1359.03369	1004.60681	1657.86304	1488.66406	1142.26697	1621.92322	1360.33081	1138.57043	1614.57959	1430.17542	1146.94727	1462.00244	1419.43372	1191.50879	1134.86560	1435.45923	1038.49670	1381.90149	1442.54761	1006.32745	1204.72900	1344.88025	1220.75781	1295.24585	1594.45667	1103.89441	1414.67126	1659.40015	1132.39502	1212.76672	1666.19971	1150.94946	1101.27429	1688.82739	1138.57605	951.29907	1653.39404	1075.80396	834.70276	1681.00854	1141.47009	831.67786	1687.47961	1102.16101	749.89838	1272.58167	1072.11023	1415.72961	1178.89941	1097.17029	1217.53284	1165.76514	1077.97278	1097.00037	1156.75171	1030.35107	986.97583	1206.32422	935.88501	875.99030	1159.24866	980.98840	859.35608	1166.49072	921.50482	800.36743	1534.43481	1020.71082	972.26428	1314.47192	1010.05994	977.34363	1501.24976	1179.14160	997.26874	1333.76575	1164.12915	1002.90405	1606.61987	1030.84351	664.41254	1596.00952	978.86609	509.17075	1579.85388	1132.31030	318.84122	1537.75403	1233.60718	181.27628	1485.44312	1267.63452	188.77016	1554.52991	1140.77173	71.41633	1273.21326	1064.19678	639.45038	1302.73389	1061.75720	514.66168	1318.13269	1135.17566	255.29390	1375.48718	1166.84558	74.47852	1420.92175	1208.55835	53.12420	1381.74963	1014.46381	36.68294	1428.28748	1104.04517	1712.56982																														 
2	0.010	1490.50476	997.14954	1670.51038	1359.17432	994.95374	1657.39441	1488.90247	1132.68982	1621.89758	1360.56042	1129.04761	1614.57971	1430.29211	1137.75842	1461.76367	1419.33118	1182.26648	1134.50903	1435.51123	1029.34534	1381.64648	1442.26746	997.03992	1204.48547	1344.63318	1211.48193	1294.95642	1594.52710	1094.79700	1414.23560	1659.16406	1125.00281	1212.54297	1665.58936	1144.73779	1101.25427	1687.71521	1136.09668	951.13568	1651.22852	1077.20056	832.59369	1679.73242	1142.53772	831.59692	1684.71155	1105.99719	748.19128	1272.70044	1063.22253	1415.76282	1178.75525	1086.51843	1217.58093	1165.28442	1065.17432	1097.49207	1156.62927	1014.46149	988.91003	1206.62683	916.88226	881.05920	1159.77502	961.39423	862.87653	1167.15918	900.00659	805.90936	1533.82959	1010.86786	972.35858	1314.18164	1001.41449	976.73322	1501.68225	1169.44971	997.12811	1334.07654	1155.25354	1002.47198	1606.59460	1016.86304	665.56989	1594.58362	962.97083	510.64444	1580.39758	1110.04517	314.17380	1539.24744	1205.57471	172.14349	1487.19836	1240.34497	177.48303	1555.76038	1106.75073	67.31770	1273.67322	1057.95374	638.82208	1302.93408	1057.03076	513.87457	1318.66064	1133.21826	255.27644	1375.76270	1166.46399	74.70329	1421.46045	1208.10205	53.30630	1381.91211	1014.55798	36.67897	1428.53625	1094.15930	1712.43298																														 
3	0.020	1490.82324	987.41046	1669.86646	1359.45618	985.51141	1656.72778	1489.21375	1123.10889	1621.69958	1360.83044	1119.51208	1614.38293	1430.53784	1128.62256	1461.34839	1419.25293	1172.95142	1133.99890	1435.63000	1020.19977	1381.25806	1442.01013	987.71448	1204.13879	1344.43298	1202.25049	1294.50513	1594.66138	1085.68384	1413.59778	1658.93640	1117.64966	1212.17371	1665.01208	1138.65247	1101.21167	1686.13977	1132.89526	950.41797	1648.76465	1078.37061	830.71893	1678.91101	1143.01086	831.54626	1682.08679	1109.11450	746.70264	1272.90735	1054.32397	1415.58154	1178.65112	1075.88721	1217.53198	1164.83081	1052.44531	1097.90479	1156.53772	998.76685	990.84735	1207.06519	898.14215	886.25208	1160.43445	942.01331	866.37671	1167.80945	879.21692	811.55182	1533.41187	1001.11548	972.29987	1313.89587	992.86969	975.96039	1502.17529	1159.77600	996.76654	1334.44995	1146.44153	1001.80035	1606.72717	1003.11163	666.21594	1593.39514	947.70782	512.13116	1580.85486	1087.75330	309.24335	1540.49182	1176.59351	162.50754	1488.78931	1212.28992	165.94221	1557.63586	1072.77356	63.98249	1274.30066	1051.69238	638.03937	1303.19031	1052.35046	513.02887	1319.30493	1131.09534	255.21390	1376.04236	1166.17493	74.85764	1421.86743	1207.93286	53.55753	1381.84790	1014.47198	36.68925	1428.80945	1084.30432	1712.12329																														 
4	0.030	1491.06775	977.59332	1668.99500	1359.77856	975.86639	1655.95386	1489.55127	1113.49377	1621.24658	1361.19897	1110.04041	1614.02051	1430.81018	1119.35339	1460.72583	1419.25513	1163.65991	1133.29236	1435.73096	1011.02997	1380.63794	1441.77283	978.35248	1203.55249	1344.29077	1193.00952	1293.85364	1594.87915	1076.43640	1412.77136	1658.72559	1110.32642	1211.60352	1664.42480	1132.71033	1100.95728	1684.99646	1129.74219	949.90106	1646.55408	1078.74133	829.23865	1678.43030	1142.88220	831.61737	1679.54749	1111.54639	745.42004	1273.18262	1045.53516	1415.20300	1178.64795	1065.22107	1217.30566	1164.52808	1039.85864	1098.16382	1156.50488	983.37573	992.75201	1207.60168	879.69897	891.49506	1160.96069	923.12323	870.01758	1168.67981	858.44452	817.21472	1532.93298	991.32477	971.96594	1313.67029	984.22040	975.00049	1502.66052	1150.16174	996.23334	1334.86719	1137.60925	1000.97211	1606.66931	989.66144	667.04126	1592.18542	933.04022	513.42279	1581.27112	1065.50525	304.13995	1542.15955	1147.58215	153.16930	1490.42725	1183.39392	154.17044	1559.31860	1038.28003	60.51672	1274.96655	1045.43713	637.19855	1303.43542	1047.87646	512.13434	1320.04993	1128.86584	255.01390	1376.51025	1165.70679	74.93806	1422.28394	1207.62939	53.57297	1381.85400	1014.48486	36.78415	1429.19153	1074.42249	1711.62036																														 
